<svg xmlns="http://www.w3.org/2000/svg" viewBox="0 0 2374 1024"><path fill="#fff" d="M266 948.001C266 965.688 251.672 980 234 980H42C24.328 980 10 965.688 10 948.001S24.328 916.003 42 916.003H106V623.797L59.75 654.639C45 664.389 25.172 660.451 15.375 645.764 5.578 631.046 9.547 611.203 24.25 601.391L120.25 537.394C130.062 530.832 142.688 530.207 153.094 535.8 163.5 541.363 170 552.206 170 564.018V916.003H234C251.672 916.003 266 930.315 266 948.001Z M436 532C347.781 532 276 603.781 276 692V820C276 908.219 347.781 980 436 980S596 908.219 596 820V692C596 603.781 524.219 532 436 532Z M532 820C532 872.938 488.938 916 436 916S340 872.938 340 820V692C340 639.062 383.062 596 436 596S532 639.062 532 692V820Z M873.529 749.193C896.02 726.117 910 694.701 910 660 910 589.406 852.594 532 782 532H750C679.406 532 622 589.406 622 660 622 694.701 635.98 726.117 658.471 749.193 626.818 772.516 606 809.744 606 852 606 922.594 663.406 980 734 980H798C868.594 980 926 922.594 926 852 926 809.744 905.182 772.516 873.529 749.193Z M750 596H782C817.281 596 846 624.719 846 660S817.281 724 782 724H750C714.719 724 686 695.281 686 660S714.719 596 750 596Z M798 916H734C698.719 916 670 887.281 670 852S698.719 788 734 788H798C833.281 788 862 816.719 862 852S833.281 916 798 916Z M1096 532C1007.781 532 936 603.781 936 692V820C936 908.219 1007.781 980 1096 980S1256 908.219 1256 820V692C1256 603.781 1184.219 532 1096 532Z M1192 820C1192 872.938 1148.938 916 1096 916S1000 872.938 1000 820V692C1000 639.062 1043.062 596 1096 596S1192 639.062 1192 692V820Z M1298 980C1280.312 980 1266 965.688 1266 948V564C1266 546.312 1280.312 532 1298 532H1426C1514.219 532 1586 603.781 1586 692S1514.219 852 1426 852H1330V948C1330 965.688 1315.688 980 1298 980Z M1330 788H1426C1478.938 788 1522 744.938 1522 692S1478.938 596 1426 596H1330V788Z" ></path><path fill="red" d="M1970 64V448C1970 465.688 1955.672 480 1938 480S1906 465.688 1906 448V270.531H1650V448C1650 465.688 1635.672 480 1618 480S1586 465.688 1586 448V64C1586 46.312 1600.328 32 1618 32S1650 46.312 1650 64V206.531H1906V64C1906 46.312 1920.328 32 1938 32S1970 46.312 1970 64Z M2136.438 480H2012C1994.328 480 1980 465.688 1980 448V64C1980 46.312 1994.328 32 2012 32H2136.438C2261.922 32 2364 132.5 2364 256S2261.922 480 2136.438 480Z M2044 416H2136.438C2226.625 416 2300 344.219 2300 256S2226.625 96 2136.438 96H2044V416Z"></path></svg>