<svg xmlns="http://www.w3.org/2000/svg" viewBox="0 0 2374 1024"><path fill="#fff" d="M266 948.001C266 965.688 251.672 980 234 980H42C24.328 980 10 965.688 10 948.001S24.328 916.003 42 916.003H106V623.797L59.75 654.639C45 664.389 25.172 660.451 15.375 645.764 5.578 631.046 9.547 611.203 24.25 601.391L120.25 537.394C130.062 530.832 142.688 530.207 153.094 535.8 163.5 541.363 170 552.206 170 564.018V916.003H234C251.672 916.003 266 930.315 266 948.001Z M650 819.993C650 837.681 635.672 851.994 618 851.994H586V947.999C586 965.687 571.671 980 553.999 980S521.999 965.687 521.999 947.999V851.994H297.998C286.904 851.994 276.607 846.244 270.779 836.806 264.951 827.368 264.419 815.586 269.372 805.679L397.373 549.667C405.264 533.885 424.452 527.51 440.311 535.354 456.124 543.261 462.53 562.48 454.624 578.294L349.779 787.991H521.999V659.985C521.999 642.297 536.327 627.984 553.999 627.984S586 642.297 586 659.985V787.991H618C635.672 787.991 650 802.304 650 819.993Z M1044 819.993C1044 837.681 1029.672 851.994 1012 851.994H980V947.999C980 965.687 965.671 980 947.999 980S915.999 965.687 915.999 947.999V851.994H691.998C680.904 851.994 670.607 846.244 664.779 836.806 658.951 827.368 658.419 815.586 663.372 805.679L791.373 549.667C799.264 533.885 818.452 527.51 834.311 535.354 850.124 543.261 856.53 562.48 848.624 578.294L743.779 787.991H915.999V659.985C915.999 642.297 930.327 627.984 947.999 627.984S980 642.297 980 659.985V787.991H1012C1029.672 787.991 1044 802.304 1044 819.993Z M1214 532C1125.781 532 1054 603.781 1054 692V820C1054 908.219 1125.781 980 1214 980S1374 908.219 1374 820V692C1374 603.781 1302.219 532 1214 532Z M1310 820C1310 872.938 1266.938 916 1214 916S1118 872.938 1118 820V692C1118 639.062 1161.062 596 1214 596S1310 639.062 1310 692V820Z M1426 980C1408.312 980 1394 965.688 1394 948V564C1394 546.312 1408.312 532 1426 532H1554C1642.219 532 1714 603.781 1714 692S1642.219 852 1554 852H1458V948C1458 965.688 1443.688 980 1426 980Z M1458 788H1554C1606.938 788 1650 744.938 1650 692S1606.938 596 1554 596H1458V788Z "></path><path fill="red" d="M2034 447.994C2034 465.685 2019.672 480 2002 480H1746.004C1732.754 480 1720.879 471.842 1716.129 459.465 1711.379 447.119 1714.739 433.085 1724.582 424.208L1926.001 242.642C1941.673 227.233 1950.845 205.572 1950.845 182.537 1950.845 159.532 1941.673 137.872 1925.017 121.525 1890.189 87.362 1833.597 87.425 1798.8 121.525L1768.191 150.999C1755.473 163.252 1735.207 162.908 1722.942 150.124 1710.692 137.403 1711.083 117.118 1723.817 104.866L1754.207 75.61C1813.487 17.411 1910.33 17.443 1969.829 75.829 1998.86 104.303 2014.844 142.185 2014.844 182.537 2014.844 222.919 1998.86 260.802 1969.829 289.276L1829.3 415.988H2002C2019.672 415.988 2034 430.303 2034 447.994Z M2358.312 429.781C2368.375 444.313 2364.75 464.25 2350.219 474.313 2344.656 478.156 2338.312 480 2332.031 480 2321.875 480 2311.906 475.188 2305.688 466.219L2172.117 273.281 2108 338.855V448C2108 465.688 2093.688 480 2076 480S2044 465.688 2044 448V64C2044 46.312 2058.312 32 2076 32S2108 46.312 2108 64V247.316L2309.125 41.625C2321.437 29.031 2341.75 28.75 2354.375 41.125 2367 53.469 2367.25 73.75 2354.875 86.375L2217.695 226.668 2358.312 429.781Z"></path></svg>