<svg xmlns="http://www.w3.org/2000/svg" viewBox="0 0 2300 1024"><path fill="#fff" d="M330 947.994C330 965.685 315.672 980 298 980H42.004C28.754 980 16.879 971.842 12.129 959.465 7.379 947.119 10.739 933.085 20.582 924.208L222.001 742.642C237.673 727.233 246.845 705.572 246.845 682.537 246.845 659.532 237.673 637.872 221.017 621.525 186.189 587.362 129.597 587.425 94.8 621.525L64.191 650.999C51.473 663.252 31.207 662.908 18.942 650.124 6.692 637.403 7.083 617.118 19.817 604.866L50.207 575.61C109.487 517.411 206.33 517.443 265.829 575.829 294.86 604.303 310.844 642.185 310.844 682.537 310.844 722.919 294.86 760.802 265.829 789.276L125.3 915.988H298C315.672 915.988 330 930.303 330 947.994Z M596 948.001C596 965.688 581.672 980 564 980H372C354.328 980 340 965.688 340 948.001S354.328 916.003 372 916.003H436V623.797L389.75 654.639C375 664.389 355.172 660.451 345.375 645.764 335.578 631.046 339.547 611.203 354.25 601.391L450.25 537.394C460.062 530.832 472.688 530.207 483.094 535.8 493.5 541.363 500 552.206 500 564.018V916.003H564C581.672 916.003 596 930.315 596 948.001Z M921.705 782.466C908.454 724.841 862.858 678.653 805.542 664.777 790.073 660.996 774.478 659.559 759.415 660.309L822.606 584.495C833.919 570.901 832.075 550.714 818.512 539.401 804.855 528.12 784.729 529.932 773.415 543.495L650.565 690.934C621.813 725.434 606 769.154 606 814.061 606 903.374 675.941 977.781 761.884 979.969 763.29 980 764.634 980 766.04 980 814.324 980 859.327 958.719 889.984 921.156 921.549 882.53 933.112 831.967 921.705 782.466Z M766.009 915.999C712.986 915.999 670.004 873.018 670.004 819.998S712.986 723.997 766.009 723.997 862.014 766.978 862.014 819.998 819.031 915.999 766.009 915.999Z M1096 532C1007.781 532 936 603.781 936 692V820C936 908.219 1007.781 980 1096 980S1256 908.219 1256 820V692C1256 603.781 1184.219 532 1096 532Z M1192 820C1192 872.938 1148.938 916 1096 916S1000 872.938 1000 820V692C1000 639.062 1043.062 596 1096 596S1192 639.062 1192 692V820Z M1298 980C1280.312 980 1266 965.688 1266 948V564C1266 546.312 1280.312 532 1298 532H1426C1514.219 532 1586 603.781 1586 692S1514.219 852 1426 852H1330V948C1330 965.688 1315.688 980 1298 980Z M1330 788H1426C1478.938 788 1522 744.938 1522 692S1478.938 596 1426 596H1330V788Z"></path><path fill="red" d=" M1970 319.993C1970 337.681 1955.672 351.994 1938 351.994H1906V447.999C1906 465.687 1891.671 480 1873.999 480S1841.999 465.687 1841.999 447.999V351.994H1617.998C1606.904 351.994 1596.607 346.244 1590.779 336.806 1584.951 327.368 1584.419 315.586 1589.372 305.679L1717.373 49.667C1725.264 33.885 1744.452 27.51 1760.311 35.354 1776.124 43.261 1782.53 62.48 1774.624 78.294L1669.779 287.991H1841.999V159.985C1841.999 142.297 1856.327 127.984 1873.999 127.984S1906 142.297 1906 159.985V287.991H1938C1955.672 287.991 1970 302.304 1970 319.993Z M2284.312 429.781C2294.375 444.313 2290.75 464.25 2276.219 474.313 2270.656 478.156 2264.312 480 2258.031 480 2247.875 480 2237.906 475.188 2231.688 466.219L2098.117 273.281 2034 338.855V448C2034 465.688 2019.688 480 2002 480S1970 465.688 1970 448V64C1970 46.312 1984.312 32 2002 32S2034 46.312 2034 64V247.316L2235.125 41.625C2247.437 29.031 2267.75 28.75 2280.375 41.125 2293 53.469 2293.25 73.75 2280.875 86.375L2143.695 226.668 2284.312 429.781Z"></path></svg>