<svg xmlns="http://www.w3.org/2000/svg" viewBox="0 0 2354 1024"><path fill="#fff" d="M394 819.993C394 837.681 379.672 851.994 362 851.994H330V947.999C330 965.687 315.671 980 297.999 980S265.999 965.687 265.999 947.999V851.994H41.998C30.904 851.994 20.607 846.244 14.779 836.806 8.951 827.368 8.419 815.586 13.372 805.679L141.373 549.667C149.264 533.885 168.452 527.51 184.311 535.354 200.124 543.261 206.53 562.48 198.624 578.294L93.779 787.991H265.999V659.985C265.999 642.297 280.327 627.984 297.999 627.984S330 642.297 330 659.985V787.991H362C379.672 787.991 394 802.304 394 819.993Z M714 843.281C714 918.656 652.658 980 577.27 980H498.664C451.853 980 410.448 950.156 395.651 905.75 390.058 888.969 399.136 870.844 415.901 865.25 432.619 859.75 450.775 868.75 456.368 885.5 462.446 903.75 479.445 916 498.664 916H577.27C617.378 916 650.002 883.375 650.002 843.281 650.002 803.156 617.378 770.531 577.27 770.531H490.008C477.039 770.531 465.352 762.719 460.415 750.719S458.274 724.938 467.477 715.812L588.286 596H426.01C408.339 596 394.011 581.688 394.011 564S408.339 532 426.01 532H666.002C678.97 532 690.657 539.812 695.594 551.812 700.532 563.812 697.735 577.594 688.532 586.719L567.724 706.531H577.27C652.658 706.531 714 767.875 714 843.281Z M1044 947.994C1044 965.685 1029.672 980 1012 980H756.004C742.754 980 730.879 971.842 726.129 959.465 721.379 947.119 724.739 933.085 734.582 924.208L936.001 742.642C951.673 727.233 960.845 705.572 960.845 682.537 960.845 659.532 951.673 637.872 935.017 621.525 900.189 587.362 843.597 587.425 808.8 621.525L778.191 650.999C765.473 663.252 745.207 662.908 732.942 650.124 720.692 637.403 721.083 617.118 733.817 604.866L764.207 575.61C823.487 517.411 920.33 517.443 979.829 575.829 1008.86 604.303 1024.844 642.185 1024.844 682.537 1024.844 722.919 1008.86 760.802 979.829 789.276L839.3 915.988H1012C1029.672 915.988 1044 930.303 1044 947.994Z M1214 532C1125.781 532 1054 603.781 1054 692V820C1054 908.219 1125.781 980 1214 980S1374 908.219 1374 820V692C1374 603.781 1302.219 532 1214 532Z M1310 820C1310 872.938 1266.938 916 1214 916S1118 872.938 1118 820V692C1118 639.062 1161.062 596 1214 596S1310 639.062 1310 692V820Z M1416 980C1398.312 980 1384 965.688 1384 948V564C1384 546.312 1398.312 532 1416 532H1544C1632.219 532 1704 603.781 1704 692S1632.219 852 1544 852H1448V948C1448 965.688 1433.688 980 1416 980Z M1448 788H1544C1596.938 788 1640 744.938 1640 692S1596.938 596 1544 596H1448V788Z"></path><path fill="red" d="M1961.529 249.193C1984.02 226.117 1998 194.701 1998 160 1998 89.406 1940.594 32 1870 32H1838C1767.406 32 1710 89.406 1710 160 1710 194.701 1723.98 226.117 1746.471 249.193 1714.818 272.516 1694 309.744 1694 352 1694 422.594 1751.406 480 1822 480H1886C1956.594 480 2014 422.594 2014 352 2014 309.744 1993.182 272.516 1961.529 249.193Z M1838 96H1870C1905.281 96 1934 124.719 1934 160S1905.281 224 1870 224H1838C1802.719 224 1774 195.281 1774 160S1802.719 96 1838 96Z M1886 416H1822C1786.719 416 1758 387.281 1758 352S1786.719 288 1822 288H1886C1921.281 288 1950 316.719 1950 352S1921.281 416 1886 416Z M2338.312 429.781C2348.375 444.313 2344.75 464.25 2330.219 474.313 2324.656 478.156 2318.312 480 2312.031 480 2301.875 480 2291.906 475.188 2285.688 466.219L2152.117 273.281 2088 338.855V448C2088 465.688 2073.688 480 2056 480S2024 465.688 2024 448V64C2024 46.312 2038.312 32 2056 32S2088 46.312 2088 64V247.316L2289.125 41.625C2301.437 29.031 2321.75 28.75 2334.375 41.125 2347 53.469 2347.25 73.75 2334.875 86.375L2197.695 226.668 2338.312 429.781Z"></path></svg>