<svg xmlns="http://www.w3.org/2000/svg" viewBox="0 0 2162 1024"><path fill="#fff" d="M394 819.993C394 837.681 379.672 851.994 362 851.994H330V947.999C330 965.687 315.671 980 297.999 980S265.999 965.687 265.999 947.999V851.994H41.998C30.904 851.994 20.607 846.244 14.779 836.806 8.951 827.368 8.419 815.586 13.372 805.679L141.373 549.667C149.264 533.885 168.452 527.51 184.311 535.354 200.124 543.261 206.53 562.48 198.624 578.294L93.779 787.991H265.999V659.985C265.999 642.297 280.327 627.984 297.999 627.984S330 642.297 330 659.985V787.991H362C379.672 787.991 394 802.304 394 819.993Z M671.529 749.193C694.02 726.117 708 694.701 708 660 708 589.406 650.594 532 580 532H548C477.406 532 420 589.406 420 660 420 694.701 433.98 726.117 456.471 749.193 424.818 772.516 404 809.744 404 852 404 922.594 461.406 980 532 980H596C666.594 980 724 922.594 724 852 724 809.744 703.182 772.516 671.529 749.193Z M548 596H580C615.281 596 644 624.719 644 660S615.281 724 580 724H548C512.719 724 484 695.281 484 660S512.719 596 548 596Z M596 916H532C496.719 916 468 887.281 468 852S496.719 788 532 788H596C631.281 788 660 816.719 660 852S631.281 916 596 916Z M894 532C805.781 532 734 603.781 734 692V820C734 908.219 805.781 980 894 980S1054 908.219 1054 820V692C1054 603.781 982.219 532 894 532Z M990 820C990 872.938 946.938 916 894 916S798 872.938 798 820V692C798 639.062 841.062 596 894 596S990 639.062 990 692V820Z M1096 980C1078.312 980 1064 965.688 1064 948V564C1064 546.312 1078.312 532 1096 532H1224C1312.219 532 1384 603.781 1384 692S1312.219 852 1224 852H1128V948C1128 965.688 1113.688 980 1096 980Z M1128 788H1224C1276.938 788 1320 744.938 1320 692S1276.938 596 1224 596H1128V788Z"></path><path fill="red" d="M1597.582 480.156C1535.707 480.156 1471.754 457.719 1440.019 444.781 1423.66 438.125 1415.801 419.437 1422.488 403.062 1429.144 386.687 1447.754 378.781 1464.207 385.531 1541.722 417.125 1614.785 424.937 1650.254 405.219 1664.082 397.562 1671.926 385.812 1674.941 368.25 1682.191 325.938 1656.738 311.5 1571.254 286.875 1500.707 266.562 1404.097 238.719 1422.222 133.188 1427.707 101.188 1445.879 73.812 1473.363 56.156 1518.957 26.938 1588.41 24.312 1679.722 48.469 1696.816 53 1706.988 70.5 1702.472 87.594 1697.941 104.656 1680.535 114.844 1663.347 110.344 1572.129 86.187 1528.457 96.844 1507.957 110 1495.41 118.062 1487.785 129.5 1485.285 144 1478.035 186.312 1503.488 200.75 1588.972 225.375 1659.519 245.688 1756.129 273.531 1738.004 379.063 1731.722 415.688 1712.113 444.094 1681.316 461.188 1656.41 475.031 1627.222 480.156 1597.582 480.156Z M1914.438 480H1790C1772.328 480 1758 465.688 1758 448V64C1758 46.312 1772.328 32 1790 32H1914.438C2039.922 32 2142 132.5 2142 256S2039.922 480 1914.438 480Z M1822 416H1914.438C2004.625 416 2078 344.219 2078 256S2004.625 96 1914.438 96H1822V416Z"></path></svg>