<svg xmlns="http://www.w3.org/2000/svg" viewBox="0 0 2098 1024"><path fill="#fff" d="M325.652 580.125 101.655 964.125C95.686 974.312 84.968 980 73.968 980 68.499 980 62.937 978.594 57.874 975.656 42.625 966.75 37.468 947.156 46.343 931.875L242.278 596H42C24.312 596 10 581.688 10 564S24.312 532 42 532H297.996C309.465 532 320.027 538.125 325.746 548.062 331.465 558 331.402 570.219 325.652 580.125Z M670 947.994C670 965.685 655.672 980 638 980H382.004C368.754 980 356.879 971.842 352.129 959.465 347.379 947.119 350.739 933.085 360.582 924.208L562.001 742.642C577.673 727.233 586.845 705.572 586.845 682.537 586.845 659.532 577.673 637.872 561.017 621.525 526.189 587.362 469.597 587.425 434.8 621.525L404.191 650.999C391.473 663.252 371.207 662.908 358.942 650.124 346.692 637.403 347.083 617.118 359.817 604.866L390.207 575.61C449.487 517.411 546.33 517.443 605.829 575.829 634.86 604.303 650.844 642.185 650.844 682.537 650.844 722.919 634.86 760.802 605.829 789.276L465.3 915.988H638C655.672 915.988 670 930.303 670 947.994Z M840 532C751.781 532 680 603.781 680 692V820C680 908.219 751.781 980 840 980S1000 908.219 1000 820V692C1000 603.781 928.219 532 840 532Z M936 820C936 872.938 892.938 916 840 916S744 872.938 744 820V692C744 639.062 787.062 596 840 596S936 639.062 936 692V820Z M1042 980C1024.312 980 1010 965.688 1010 948V564C1010 546.312 1024.312 532 1042 532H1170C1258.219 532 1330 603.781 1330 692S1258.219 852 1170 852H1074V948C1074 965.688 1059.688 980 1042 980Z M1074 788H1170C1222.938 788 1266 744.938 1266 692S1222.938 596 1170 596H1074V788Z"></path><path fill="red" d="M1694 64V448C1694 465.688 1679.672 480 1662 480S1630 465.688 1630 448V270.531H1374V448C1374 465.688 1359.672 480 1342 480S1310 465.688 1310 448V64C1310 46.312 1324.328 32 1342 32S1374 46.312 1374 64V206.531H1630V64C1630 46.312 1644.328 32 1662 32S1694 46.312 1694 64Z M1860.438 480H1736C1718.328 480 1704 465.688 1704 448V64C1704 46.312 1718.328 32 1736 32H1860.438C1985.922 32 2088 132.5 2088 256S1985.922 480 1860.438 480Z M1768 416H1860.438C1950.625 416 2024 344.219 2024 256S1950.625 96 1860.438 96H1768V416Z"></path></svg>