<svg xmlns="http://www.w3.org/2000/svg" viewBox="0 0 1024 1024"><path fill="#e60540" d="M713 287H329C293.654 287 265 315.654 265 351V671C265 706.346 293.654 735 329 735H713C748.346 735 777 706.346 777 671V351C777 315.654 748.346 287 713 287ZM377 687H329C320.178 687 313 679.822 313 671V625H377V687ZM377 605H313V555H377ZM377 535H313V485H377ZM377 465H313V415H377ZM377 395H313V351C313 342.178 320.178 335 329 335H377ZM645 687H397V335H645V687ZM729 671C729 679.822 721.822 687 713 687H665V625H729V671ZM729 395H665V335H713C721.822 335 729 342.178 729 351ZM729 465H665V415H729ZM729 535H665V485H729ZM729 605H665V555H729ZM496 271M488.281 397.375C481.281 390.906 471.094 389.188 462.375 393 453.656 396.844 448 405.469 448 415V607C448 616.531 453.656 625.156 462.375 629 471.094 632.812 481.281 631.094 488.281 624.625L592.281 528.625C597.188 524.094 600 517.688 600 511S597.188 497.906 592.281 493.375L488.281 397.375Z M512 32C246.906 32 32 246.906 32 512S246.906 992 512 992 992 777.094 992 512C992 246.898 777.094 32 512 32ZM512 896C300.266 896 128 723.734 128 512S300.266 128 512 128 896 300.258 896 512C896 723.734 723.734 896 512 896Z"/></svg>