<svg xmlns="http://www.w3.org/2000/svg" viewBox="0 0 1024 1024"><defs><style>.fa-secondary{fill: gold;stroke: maroon;stroke-width: 2px;}.fa-primary{fill: #e60540;}</style></defs><path d="M774.655 374.083c-6.281-23.65-24.787-42.276-48.284-48.597C683.781 314 513 314 513 314S342.22 314 299.629 325.486c-23.497 6.322-42.003 24.947-48.284 48.597-11.412 42.867-11.412 132.305-11.412 132.305s0 89.438 11.412 132.305c6.281 23.65 24.787 41.5 48.284 47.821C342.22 698 513 698 513 698s170.78 0 213.371-11.486c23.497-6.321 42.003-24.171 48.284-47.821 11.412-42.867 11.412-132.305 11.412-132.305s0-89.438-11.412-132.305z" class="fa-primary" ></path><path class="fa-primary"  d="M1008.53 631.956C1008.53 614.652 999.316 598.268 983.812 589.172L917.996 551.23C919.286 538.198 919.932 525.098 919.932 512S919.286 485.802 917.996 472.77L983.812 434.828C999.316 425.732 1008.53 409.348 1008.53 392.044 1008.53 349.51 909.894 135.692 839.492 135.692 831.004 135.692 822.472 137.878 814.758 142.406L749.198 180.344C727.776 164.86 705.066 151.696 681.062 140.856V64.976C681.062 42.524 666.094 22.906 644.41 17.226 601.308 5.742 556.85 0 512.362 0 467.87 0 423.35 5.742 380.12 17.226 358.436 22.906 343.468 42.524 343.468 64.976V140.856C319.464 151.696 296.754 164.86 275.332 180.344L209.772 142.406C202.062 137.878 193.526 135.692 185.038 135.692 185.034 135.692 185.028 135.692 185.024 135.692 120.096 135.692 16 339.182 16 392.044 16 409.348 25.214 425.732 40.718 434.828L106.534 472.77C105.244 485.802 104.598 498.902 104.598 512S105.244 538.198 106.534 551.23L40.718 589.172C25.214 598.268 16 614.652 16 631.956 16 674.49 114.636 888.308 185.038 888.308 193.526 888.308 202.058 886.122 209.772 881.594L275.332 843.656C296.754 859.14 319.464 872.304 343.468 883.144V959.024C343.468 981.476 358.436 1001.094 380.12 1006.774 423.222 1018.258 467.68 1024 512.168 1024 556.66 1024 601.18 1018.258 644.41 1006.774 666.094 1001.094 681.062 981.476 681.062 959.024V883.144C705.066 872.304 727.776 859.14 749.198 843.656L814.758 881.594C822.468 886.122 831.004 888.308 839.492 888.308 904.418 888.308 1008.53 684.846 1008.53 631.956ZM830.722 779.918C783.122 752.372 808.202 766.888 743.41 729.39 659.298 790.18 678.75 778.852 585.062 821.164V921.64C558.472 926.322 533.896 928 512.186 928 481.338 928 456.28 924.612 439.468 921.648V821.164C345.558 778.752 365.104 790.088 281.12 729.39 217.496 766.21 235.792 755.622 193.848 779.898 162.362 742.512 137.698 699.79 121.034 653.68 163.286 629.326 144.722 640.028 208.176 603.446 203.098 552.166 200.554 532.158 200.554 512.08 200.554 492.036 203.09 471.92 208.176 420.554 144.396 383.784 163.142 394.59 121.008 370.304 137.636 324.218 162.374 281.372 193.808 244.082 241.408 271.628 216.328 257.112 281.12 294.61 365.232 233.82 345.78 245.148 439.468 202.836V102.36C466.058 97.678 490.636 96 512.344 96 543.194 96 568.252 99.388 585.062 102.352V202.836C678.972 245.248 659.426 233.912 743.41 294.61 811.31 255.314 788.456 268.54 830.686 244.102 862.168 281.488 886.832 324.21 903.496 370.32 861.244 394.674 879.808 383.972 816.354 420.554 821.432 471.834 823.976 491.842 823.976 511.92 823.976 531.964 821.44 552.08 816.354 603.446 880.134 640.216 861.388 629.41 903.522 653.696 886.894 699.782 862.156 742.628 830.722 779.918Z"></path><path d="M455 425.185 597.739 506.39 455 587.591Z" class="fa-secondary"></path> </svg>