<svg xmlns="http://www.w3.org/2000/svg" viewBox="0 0 1024 1024"><path fill="#e60540" d="M705 250C701.75 250 698.5 250.5 695.375 251.5L391.375 347.5C378.125 351.75 369 364 369 378V613.125C354 605.75 337.625 602 321 602 268 602 225 637.75 225 682S268 762 321 762C370.375 762 410.5 730.875 415.875 690.875 416.625 688.125 417 685.125 417 682.25V506L689 420.125V549.125C674 541.75 657.625 538 641 538 588 538 545 573.75 545 618S588 698 641 698C690.375 698 730.5 666.75 736 626.875 736.625 624.125 736.875 621.375 737 618.625 737 618.5 737 618.25 737 618V282C737 264.375 722.75 250 705 250ZM321 714C292.75 714 273 697.125 273 682S292.75 650 321 650 369 666.875 369 682 349.25 714 321 714ZM689 618C689 633.125 669.25 650 641 650S593 633.125 593 618 612.75 586 641 586 689 602.875 689 618ZM689 369.75 417 455.625V389.75L689 303.875V369.75ZM512 32C246.906 32 32 246.906 32 512S246.906 992 512 992 992 777.094 992 512C992 246.898 777.094 32 512 32ZM512 946C296 946 82 775 82 512S300.266 78 512 78 942 300.258 942 512C946 723.734 737 946 512 946Z"/></svg>